<svg width="99" height="94" viewBox="0 0 99 94" fill="none" xmlns="http://www.w3.org/2000/svg">
<g clip-path="url(#clip0_748_516)">
<rect width="99" height="94" fill="white"/>
<g filter="url(#filter0_f_748_516)">
<path d="M54.5745 28.3158C49.0808 35.7747 48.1282 45.9542 52.9744 54.348C57.8206 62.7419 67.1125 67.0066 76.319 65.9784C74.3614 68.6363 71.8273 70.9487 68.7735 72.7118C57.1495 79.4229 42.3979 75.6341 35.8249 64.2493C29.2518 52.8645 33.3465 38.1948 44.9705 31.4837C48.0243 29.7206 51.2939 28.6822 54.5745 28.3158Z" fill="#FFEE94"/>
</g>
<g filter="url(#filter1_i_748_516)">
<path d="M54.0624 31.459C49.0476 38.2678 48.178 47.5599 52.6017 55.2221C57.0255 62.8843 65.5075 66.7773 73.9115 65.8387C72.1246 68.2649 69.8113 70.3757 67.0237 71.9851C56.4129 78.1113 42.9472 74.6527 36.9471 64.2603C30.947 53.8679 34.6847 40.4769 45.2955 34.3508C48.0831 32.7413 51.0678 31.7934 54.0624 31.459Z" fill="url(#paint0_linear_748_516)"/>
</g>
<g filter="url(#filter2_b_748_516)">
<g filter="url(#filter3_i_748_516)">
<path d="M50.8102 68.2298C50.9087 67.6704 50.9601 67.0949 50.9601 66.5076C50.9601 61.0129 46.4643 56.5586 40.9184 56.5586C36.7955 56.5586 33.2529 59.0203 31.7064 62.5412C30.4536 61.4695 28.8279 60.8224 27.0513 60.8224C23.0899 60.8224 19.8786 64.0394 19.8786 68.0078C19.8786 68.2288 19.8886 68.4474 19.9081 68.6633C18.0027 69.5879 16.6908 71.5281 16.6908 73.7719C16.6908 76.9117 19.2598 79.457 22.4289 79.457H49.5256C52.6946 79.457 55.2637 76.9117 55.2637 73.7719C55.2637 71.0696 53.3608 68.8077 50.8102 68.2298Z" fill="url(#paint1_linear_748_516)"/>
</g>
</g>
<g filter="url(#filter4_b_748_516)">
<g filter="url(#filter5_i_748_516)">
<path d="M74.4801 33.8211C74.5786 33.2617 74.63 32.6862 74.63 32.0989C74.63 26.6042 70.1342 22.1499 64.5883 22.1499C60.4654 22.1499 56.9229 24.6116 55.3764 28.1325C54.1235 27.0608 52.4978 26.4137 50.7212 26.4137C46.7599 26.4137 43.5486 29.6307 43.5486 33.5991C43.5486 33.8201 43.5585 34.0387 43.578 34.2546C41.6727 35.1793 40.3607 37.1194 40.3607 39.3632C40.3607 42.503 42.9298 45.0483 46.0988 45.0483H73.1955C76.3646 45.0483 78.9336 42.503 78.9336 39.3632C78.9336 36.6609 77.0307 34.399 74.4801 33.8211Z" fill="url(#paint2_linear_748_516)"/>
</g>
</g>
<g filter="url(#filter6_di_748_516)">
<path d="M59.3765 13.0288C57.0717 14.0523 56.1722 14.9172 55.3477 17.0576C54.6911 14.9833 53.8837 14.058 51.319 13.0288C53.9573 12.1692 54.6733 11.1741 55.3477 9.00007C56.1764 11.0038 56.6883 12.0974 59.3765 13.0288Z" fill="url(#paint3_linear_748_516)"/>
</g>
<g filter="url(#filter7_di_748_516)">
<path d="M35.9258 32.0959C33.6211 33.1194 32.7215 33.9843 31.897 36.1247C31.2404 34.0504 30.433 33.1252 27.8683 32.0959C30.5066 31.2364 31.2226 30.2413 31.897 28.0672C32.7258 30.0709 33.2376 31.1645 35.9258 32.0959Z" fill="url(#paint4_linear_748_516)"/>
</g>
<g filter="url(#filter8_di_748_516)">
<path d="M72.9644 54.2317C70.6596 55.2551 69.7601 56.12 68.9356 58.2604C68.279 56.1861 67.4716 55.2609 64.9069 54.2317C67.5452 53.3721 68.2612 52.377 68.9356 50.2029C69.7643 52.2067 70.2762 53.3002 72.9644 54.2317Z" fill="url(#paint5_linear_748_516)"/>
</g>
</g>
<defs>
<filter id="filter0_f_748_516" x="-20.3115" y="-24.6843" width="149.63" height="153.715" filterUnits="userSpaceOnUse" color-interpolation-filters="sRGB">
<feFlood flood-opacity="0" result="BackgroundImageFix"/>
<feBlend mode="normal" in="SourceGraphic" in2="BackgroundImageFix" result="shape"/>
<feGaussianBlur stdDeviation="26.5" result="effect1_foregroundBlur_748_516"/>
</filter>
<filter id="filter1_i_748_516" x="34.0845" y="31.459" width="39.8271" height="47.5557" filterUnits="userSpaceOnUse" color-interpolation-filters="sRGB">
<feFlood flood-opacity="0" result="BackgroundImageFix"/>
<feBlend mode="normal" in="SourceGraphic" in2="BackgroundImageFix" result="shape"/>
<feColorMatrix in="SourceAlpha" type="matrix" values="0 0 0 0 0 0 0 0 0 0 0 0 0 0 0 0 0 0 127 0" result="hardAlpha"/>
<feOffset dy="4"/>
<feGaussianBlur stdDeviation="4"/>
<feComposite in2="hardAlpha" operator="arithmetic" k2="-1" k3="1"/>
<feColorMatrix type="matrix" values="0 0 0 0 1 0 0 0 0 1 0 0 0 0 1 0 0 0 0.55 0"/>
<feBlend mode="normal" in2="shape" result="effect1_innerShadow_748_516"/>
</filter>
<filter id="filter2_b_748_516" x="-10.3091" y="29.5586" width="92.5728" height="76.8984" filterUnits="userSpaceOnUse" color-interpolation-filters="sRGB">
<feFlood flood-opacity="0" result="BackgroundImageFix"/>
<feGaussianBlur in="BackgroundImageFix" stdDeviation="13.5"/>
<feComposite in2="SourceAlpha" operator="in" result="effect1_backgroundBlur_748_516"/>
<feBlend mode="normal" in="SourceGraphic" in2="effect1_backgroundBlur_748_516" result="shape"/>
</filter>
<filter id="filter3_i_748_516" x="16.6909" y="56.5586" width="38.5728" height="32.8984" filterUnits="userSpaceOnUse" color-interpolation-filters="sRGB">
<feFlood flood-opacity="0" result="BackgroundImageFix"/>
<feBlend mode="normal" in="SourceGraphic" in2="BackgroundImageFix" result="shape"/>
<feColorMatrix in="SourceAlpha" type="matrix" values="0 0 0 0 0 0 0 0 0 0 0 0 0 0 0 0 0 0 127 0" result="hardAlpha"/>
<feOffset dy="11"/>
<feGaussianBlur stdDeviation="5"/>
<feComposite in2="hardAlpha" operator="arithmetic" k2="-1" k3="1"/>
<feColorMatrix type="matrix" values="0 0 0 0 1 0 0 0 0 1 0 0 0 0 1 0 0 0 1 0"/>
<feBlend mode="normal" in2="shape" result="effect1_innerShadow_748_516"/>
</filter>
<filter id="filter4_b_748_516" x="13.3608" y="-4.8501" width="92.5728" height="76.8984" filterUnits="userSpaceOnUse" color-interpolation-filters="sRGB">
<feFlood flood-opacity="0" result="BackgroundImageFix"/>
<feGaussianBlur in="BackgroundImageFix" stdDeviation="13.5"/>
<feComposite in2="SourceAlpha" operator="in" result="effect1_backgroundBlur_748_516"/>
<feBlend mode="normal" in="SourceGraphic" in2="effect1_backgroundBlur_748_516" result="shape"/>
</filter>
<filter id="filter5_i_748_516" x="40.3608" y="22.1499" width="38.5728" height="32.8984" filterUnits="userSpaceOnUse" color-interpolation-filters="sRGB">
<feFlood flood-opacity="0" result="BackgroundImageFix"/>
<feBlend mode="normal" in="SourceGraphic" in2="BackgroundImageFix" result="shape"/>
<feColorMatrix in="SourceAlpha" type="matrix" values="0 0 0 0 0 0 0 0 0 0 0 0 0 0 0 0 0 0 127 0" result="hardAlpha"/>
<feOffset dy="11"/>
<feGaussianBlur stdDeviation="5"/>
<feComposite in2="hardAlpha" operator="arithmetic" k2="-1" k3="1"/>
<feColorMatrix type="matrix" values="0 0 0 0 1 0 0 0 0 1 0 0 0 0 1 0 0 0 1 0"/>
<feBlend mode="normal" in2="shape" result="effect1_innerShadow_748_516"/>
</filter>
<filter id="filter6_di_748_516" x="42.5514" y="9" width="25.5925" height="27.8251" filterUnits="userSpaceOnUse" color-interpolation-filters="sRGB">
<feFlood flood-opacity="0" result="BackgroundImageFix"/>
<feColorMatrix in="SourceAlpha" type="matrix" values="0 0 0 0 0 0 0 0 0 0 0 0 0 0 0 0 0 0 127 0" result="hardAlpha"/>
<feOffset dy="11"/>
<feGaussianBlur stdDeviation="4.38372"/>
<feColorMatrix type="matrix" values="0 0 0 0 0.285052 0 0 0 0 0.179688 0 0 0 0 0.9375 0 0 0 1 0"/>
<feBlend mode="normal" in2="BackgroundImageFix" result="effect1_dropShadow_748_516"/>
<feBlend mode="normal" in="SourceGraphic" in2="effect1_dropShadow_748_516" result="shape"/>
<feColorMatrix in="SourceAlpha" type="matrix" values="0 0 0 0 0 0 0 0 0 0 0 0 0 0 0 0 0 0 127 0" result="hardAlpha"/>
<feOffset dy="4"/>
<feGaussianBlur stdDeviation="2"/>
<feComposite in2="hardAlpha" operator="arithmetic" k2="-1" k3="1"/>
<feColorMatrix type="matrix" values="0 0 0 0 1 0 0 0 0 1 0 0 0 0 1 0 0 0 0.44 0"/>
<feBlend mode="normal" in2="shape" result="effect2_innerShadow_748_516"/>
</filter>
<filter id="filter7_di_748_516" x="19.1007" y="28.0671" width="25.5925" height="27.8251" filterUnits="userSpaceOnUse" color-interpolation-filters="sRGB">
<feFlood flood-opacity="0" result="BackgroundImageFix"/>
<feColorMatrix in="SourceAlpha" type="matrix" values="0 0 0 0 0 0 0 0 0 0 0 0 0 0 0 0 0 0 127 0" result="hardAlpha"/>
<feOffset dy="11"/>
<feGaussianBlur stdDeviation="4.38372"/>
<feColorMatrix type="matrix" values="0 0 0 0 0.285052 0 0 0 0 0.179688 0 0 0 0 0.9375 0 0 0 0.28 0"/>
<feBlend mode="normal" in2="BackgroundImageFix" result="effect1_dropShadow_748_516"/>
<feBlend mode="normal" in="SourceGraphic" in2="effect1_dropShadow_748_516" result="shape"/>
<feColorMatrix in="SourceAlpha" type="matrix" values="0 0 0 0 0 0 0 0 0 0 0 0 0 0 0 0 0 0 127 0" result="hardAlpha"/>
<feOffset dy="4"/>
<feGaussianBlur stdDeviation="2"/>
<feComposite in2="hardAlpha" operator="arithmetic" k2="-1" k3="1"/>
<feColorMatrix type="matrix" values="0 0 0 0 1 0 0 0 0 1 0 0 0 0 1 0 0 0 0.44 0"/>
<feBlend mode="normal" in2="shape" result="effect2_innerShadow_748_516"/>
</filter>
<filter id="filter8_di_748_516" x="56.1393" y="50.2029" width="25.5925" height="27.8251" filterUnits="userSpaceOnUse" color-interpolation-filters="sRGB">
<feFlood flood-opacity="0" result="BackgroundImageFix"/>
<feColorMatrix in="SourceAlpha" type="matrix" values="0 0 0 0 0 0 0 0 0 0 0 0 0 0 0 0 0 0 127 0" result="hardAlpha"/>
<feOffset dy="11"/>
<feGaussianBlur stdDeviation="4.38372"/>
<feColorMatrix type="matrix" values="0 0 0 0 0.285052 0 0 0 0 0.179688 0 0 0 0 0.9375 0 0 0 0.8 0"/>
<feBlend mode="normal" in2="BackgroundImageFix" result="effect1_dropShadow_748_516"/>
<feBlend mode="normal" in="SourceGraphic" in2="effect1_dropShadow_748_516" result="shape"/>
<feColorMatrix in="SourceAlpha" type="matrix" values="0 0 0 0 0 0 0 0 0 0 0 0 0 0 0 0 0 0 127 0" result="hardAlpha"/>
<feOffset dy="4"/>
<feGaussianBlur stdDeviation="2"/>
<feComposite in2="hardAlpha" operator="arithmetic" k2="-1" k3="1"/>
<feColorMatrix type="matrix" values="0 0 0 0 1 0 0 0 0 1 0 0 0 0 1 0 0 0 0.44 0"/>
<feBlend mode="normal" in2="shape" result="effect2_innerShadow_748_516"/>
</filter>
<linearGradient id="paint0_linear_748_516" x1="55.1544" y1="27.8481" x2="47.1931" y2="76.0534" gradientUnits="userSpaceOnUse">
<stop stop-color="#FFEE94"/>
<stop offset="1" stop-color="#FF9900"/>
</linearGradient>
<linearGradient id="paint1_linear_748_516" x1="19.1442" y1="77.4125" x2="58.0578" y2="48.3124" gradientUnits="userSpaceOnUse">
<stop stop-color="#E2D9D9"/>
<stop offset="1" stop-color="white" stop-opacity="0.58"/>
</linearGradient>
<linearGradient id="paint2_linear_748_516" x1="42.8141" y1="43.0038" x2="81.7277" y2="13.9038" gradientUnits="userSpaceOnUse">
<stop stop-color="#E2D9D9"/>
<stop offset="1" stop-color="white" stop-opacity="0.58"/>
</linearGradient>
<linearGradient id="paint3_linear_748_516" x1="54.1822" y1="17.4351" x2="57.9741" y2="10.3156" gradientUnits="userSpaceOnUse">
<stop stop-color="#FF9900"/>
<stop offset="1" stop-color="#FFEE94"/>
</linearGradient>
<linearGradient id="paint4_linear_748_516" x1="30.7316" y1="36.5022" x2="34.5234" y2="29.3828" gradientUnits="userSpaceOnUse">
<stop stop-color="#FF9900"/>
<stop offset="1" stop-color="#FFEE94"/>
</linearGradient>
<linearGradient id="paint5_linear_748_516" x1="67.7701" y1="58.638" x2="71.562" y2="51.5185" gradientUnits="userSpaceOnUse">
<stop stop-color="#FF9900"/>
<stop offset="1" stop-color="#FFEE94"/>
</linearGradient>
<clipPath id="clip0_748_516">
<rect width="99" height="94" fill="white"/>
</clipPath>
</defs>
</svg>
