<svg width="208" height="204" viewBox="0 0 208 204" fill="none" xmlns="http://www.w3.org/2000/svg">
<g filter="url(#filter0_f_748_528)">
<rect x="77.5605" y="77" width="52.5994" height="49.5311" rx="24.7655" fill="#FFEF9A"/>
</g>
<g filter="url(#filter1_i_748_528)">
<path d="M126.654 105.711C126.654 118.299 116.449 128.504 103.86 128.504C91.2722 128.504 81.0674 118.299 81.0674 105.711C81.0674 93.1223 91.2722 82.9175 103.86 82.9175C116.449 82.9175 126.654 93.1223 126.654 105.711Z" fill="url(#paint0_linear_748_528)"/>
</g>
<g filter="url(#filter2_b_748_528)">
<g filter="url(#filter3_i_748_528)">
<path d="M116.862 117.464C117.021 116.564 117.103 115.639 117.103 114.695C117.103 105.86 109.874 98.6973 100.957 98.6973C94.3274 98.6973 88.6312 102.656 86.1445 108.317C84.1299 106.594 81.5158 105.553 78.6592 105.553C72.2895 105.553 67.1259 110.726 67.1259 117.107C67.1259 117.462 67.1419 117.814 67.1732 118.161C64.1096 119.648 62 122.768 62 126.375C62 131.424 66.1309 135.517 71.2266 135.517H114.797C119.893 135.517 124.023 131.424 124.023 126.375C124.023 122.03 120.964 118.393 116.862 117.464Z" fill="url(#paint1_linear_748_528)"/>
</g>
</g>
<defs>
<filter id="filter0_f_748_528" x="0.560547" y="0" width="206.6" height="203.531" filterUnits="userSpaceOnUse" color-interpolation-filters="sRGB">
<feFlood flood-opacity="0" result="BackgroundImageFix"/>
<feBlend mode="normal" in="SourceGraphic" in2="BackgroundImageFix" result="shape"/>
<feGaussianBlur stdDeviation="38.5" result="effect1_foregroundBlur_748_528"/>
</filter>
<filter id="filter1_i_748_528" x="81.0674" y="82.9175" width="45.5859" height="50.5862" filterUnits="userSpaceOnUse" color-interpolation-filters="sRGB">
<feFlood flood-opacity="0" result="BackgroundImageFix"/>
<feBlend mode="normal" in="SourceGraphic" in2="BackgroundImageFix" result="shape"/>
<feColorMatrix in="SourceAlpha" type="matrix" values="0 0 0 0 0 0 0 0 0 0 0 0 0 0 0 0 0 0 127 0" result="hardAlpha"/>
<feOffset dy="5"/>
<feGaussianBlur stdDeviation="9"/>
<feComposite in2="hardAlpha" operator="arithmetic" k2="-1" k3="1"/>
<feColorMatrix type="matrix" values="0 0 0 0 1 0 0 0 0 1 0 0 0 0 1 0 0 0 0.81 0"/>
<feBlend mode="normal" in2="shape" result="effect1_innerShadow_748_528"/>
</filter>
<filter id="filter2_b_748_528" x="35" y="71.6973" width="116.023" height="90.8196" filterUnits="userSpaceOnUse" color-interpolation-filters="sRGB">
<feFlood flood-opacity="0" result="BackgroundImageFix"/>
<feGaussianBlur in="BackgroundImageFix" stdDeviation="13.5"/>
<feComposite in2="SourceAlpha" operator="in" result="effect1_backgroundBlur_748_528"/>
<feBlend mode="normal" in="SourceGraphic" in2="effect1_backgroundBlur_748_528" result="shape"/>
</filter>
<filter id="filter3_i_748_528" x="62" y="98.6973" width="62.0234" height="46.8196" filterUnits="userSpaceOnUse" color-interpolation-filters="sRGB">
<feFlood flood-opacity="0" result="BackgroundImageFix"/>
<feBlend mode="normal" in="SourceGraphic" in2="BackgroundImageFix" result="shape"/>
<feColorMatrix in="SourceAlpha" type="matrix" values="0 0 0 0 0 0 0 0 0 0 0 0 0 0 0 0 0 0 127 0" result="hardAlpha"/>
<feOffset dy="11"/>
<feGaussianBlur stdDeviation="5"/>
<feComposite in2="hardAlpha" operator="arithmetic" k2="-1" k3="1"/>
<feColorMatrix type="matrix" values="0 0 0 0 1 0 0 0 0 1 0 0 0 0 1 0 0 0 1 0"/>
<feBlend mode="normal" in2="shape" result="effect1_innerShadow_748_528"/>
</filter>
<linearGradient id="paint0_linear_748_528" x1="100.398" y1="118.117" x2="119.152" y2="85.2256" gradientUnits="userSpaceOnUse">
<stop stop-color="#FF9900"/>
<stop offset="1" stop-color="#FFEE94"/>
</linearGradient>
<linearGradient id="paint1_linear_748_528" x1="65.9449" y1="132.229" x2="128.516" y2="85.4378" gradientUnits="userSpaceOnUse">
<stop stop-color="#B6C5FA"/>
<stop offset="1" stop-color="white" stop-opacity="0.58"/>
</linearGradient>
</defs>
</svg>
