<svg width="16" height="16" viewBox="0 0 16 16" fill="none" xmlns="http://www.w3.org/2000/svg">
<path d="M13.8217 3.94904H10.5309V2.84989C10.5154 2.42854 10.3336 2.0305 10.0251 1.74303C9.71667 1.45556 9.30682 1.30212 8.88543 1.31634H6.9109C6.48951 1.30212 6.07967 1.45556 5.77122 1.74303C5.46278 2.0305 5.2809 2.42854 5.26546 2.84989V3.94904H1.97458C1.80002 3.94904 1.63261 4.01838 1.50918 4.14182C1.38575 4.26525 1.31641 4.43266 1.31641 4.60722C1.31641 4.78178 1.38575 4.94919 1.50918 5.07262C1.63261 5.19605 1.80002 5.26539 1.97458 5.26539H2.63276V12.5053C2.63276 13.029 2.84079 13.5312 3.21108 13.9015C3.58138 14.2718 4.08361 14.4799 4.60729 14.4799H11.189C11.7127 14.4799 12.215 14.2718 12.5852 13.9015C12.9555 13.5312 13.1636 13.029 13.1636 12.5053V5.26539H13.8217C13.9963 5.26539 14.1637 5.19605 14.2872 5.07262C14.4106 4.94919 14.4799 4.78178 14.4799 4.60722C14.4799 4.43266 14.4106 4.26525 14.2872 4.14182C14.1637 4.01838 13.9963 3.94904 13.8217 3.94904ZM6.58181 2.84989C6.58181 2.74458 6.72003 2.63269 6.9109 2.63269H8.88543C9.0763 2.63269 9.21452 2.74458 9.21452 2.84989V3.94904H6.58181V2.84989ZM11.8472 12.5053C11.8472 12.6799 11.7779 12.8473 11.6544 12.9707C11.531 13.0942 11.3636 13.1635 11.189 13.1635H4.60729C4.43273 13.1635 4.26532 13.0942 4.14189 12.9707C4.01845 12.8473 3.94911 12.6799 3.94911 12.5053V5.26539H11.8472V12.5053Z" fill="#F43023"/>
<path d="M5.9238 11.1893C6.09836 11.1893 6.26577 11.1199 6.3892 10.9965C6.51263 10.8731 6.58198 10.7057 6.58198 10.5311V7.89841C6.58198 7.72385 6.51263 7.55644 6.3892 7.43301C6.26577 7.30958 6.09836 7.24023 5.9238 7.24023C5.74924 7.24023 5.58183 7.30958 5.4584 7.43301C5.33497 7.55644 5.26562 7.72385 5.26562 7.89841V10.5311C5.26562 10.7057 5.33497 10.8731 5.4584 10.9965C5.58183 11.1199 5.74924 11.1893 5.9238 11.1893Z" fill="#F43023"/>
<path d="M9.87302 11.1893C10.0476 11.1893 10.215 11.1199 10.3384 10.9965C10.4619 10.8731 10.5312 10.7057 10.5312 10.5311V7.89841C10.5312 7.72385 10.4619 7.55644 10.3384 7.43301C10.215 7.30958 10.0476 7.24023 9.87302 7.24023C9.69846 7.24023 9.53105 7.30958 9.40762 7.43301C9.28419 7.55644 9.21484 7.72385 9.21484 7.89841V10.5311C9.21484 10.7057 9.28419 10.8731 9.40762 10.9965C9.53105 11.1199 9.69846 11.1893 9.87302 11.1893Z" fill="#F43023"/>
</svg>
