<svg width="16" height="16" viewBox="0 0 16 16" fill="none" xmlns="http://www.w3.org/2000/svg">
<path d="M12.5045 13.1636H3.29001C3.11545 13.1636 2.94804 13.2329 2.82461 13.3563C2.70118 13.4798 2.63184 13.6472 2.63184 13.8218C2.63184 13.9963 2.70118 14.1637 2.82461 14.2872C2.94804 14.4106 3.11545 14.4799 3.29001 14.4799H12.5045C12.679 14.4799 12.8464 14.4106 12.9699 14.2872C13.0933 14.1637 13.1627 13.9963 13.1627 13.8218C13.1627 13.6472 13.0933 13.4798 12.9699 13.3563C12.8464 13.2329 12.679 13.1636 12.5045 13.1636Z" fill="#6AD387"/>
<path d="M3.29083 11.8473H3.35006L6.09465 11.5972C6.39531 11.5672 6.67651 11.4348 6.89105 11.222L12.8146 5.29844C13.0445 5.05555 13.1688 4.73143 13.1602 4.39709C13.1515 4.06276 13.0107 3.74548 12.7686 3.51478L10.9652 1.71138C10.7298 1.4903 10.4214 1.36344 10.0986 1.35495C9.77575 1.34645 9.46108 1.45691 9.21441 1.66531L3.29083 7.58889C3.07808 7.80344 2.94561 8.08463 2.91566 8.38529L2.63265 11.1299C2.62378 11.2263 2.63629 11.3235 2.66928 11.4145C2.70228 11.5055 2.75494 11.5881 2.82352 11.6564C2.88502 11.7174 2.95796 11.7657 3.03815 11.7984C3.11834 11.8312 3.2042 11.8478 3.29083 11.8473ZM10.0503 2.63283L11.8471 4.42965L10.5308 5.71309L8.76685 3.94918L10.0503 2.63283ZM4.19253 8.49718L7.89806 4.81797L9.67513 6.59505L5.98935 10.2808L4.01482 10.4651L4.19253 8.49718Z" fill="#6AD387"/>
</svg>
