<svg width="16" height="16" viewBox="0 0 16 16" fill="none" xmlns="http://www.w3.org/2000/svg">
<path d="M12.5054 5.92335C12.098 5.92449 11.701 6.05161 11.3687 6.28728C11.0364 6.52294 10.7851 6.85562 10.6493 7.2397H1.97458C1.80002 7.2397 1.63261 7.30904 1.50918 7.43247C1.38575 7.55591 1.31641 7.72332 1.31641 7.89788C1.31641 8.07243 1.38575 8.23984 1.50918 8.36328C1.63261 8.48671 1.80002 8.55605 1.97458 8.55605H10.6493C10.7701 8.89756 10.9824 9.19928 11.2632 9.42818C11.5439 9.65709 11.8822 9.80435 12.241 9.85386C12.5999 9.90338 12.9654 9.85323 13.2977 9.7089C13.6299 9.56458 13.916 9.33165 14.1247 9.03559C14.3335 8.73954 14.4567 8.39178 14.481 8.03037C14.5053 7.66895 14.4297 7.30782 14.2626 6.98648C14.0954 6.66515 13.843 6.396 13.5331 6.20849C13.2232 6.02098 12.8676 5.92233 12.5054 5.92335ZM12.5054 8.55605C12.3752 8.55605 12.248 8.51745 12.1397 8.44513C12.0315 8.37281 11.9471 8.27001 11.8973 8.14975C11.8475 8.02948 11.8345 7.89715 11.8599 7.76947C11.8853 7.6418 11.9479 7.52452 12.04 7.43247C12.132 7.34043 12.2493 7.27774 12.377 7.25235C12.5047 7.22695 12.637 7.23998 12.7573 7.2898C12.8775 7.33962 12.9803 7.42398 13.0527 7.53221C13.125 7.64045 13.1636 7.7677 13.1636 7.89788C13.1636 8.07243 13.0942 8.23984 12.9708 8.36328C12.8474 8.48671 12.68 8.55605 12.5054 8.55605Z" fill="#FFB057"/>
<path d="M1.97458 4.60697H2.75123C2.88958 4.98815 3.14194 5.31749 3.47402 5.55024C3.80609 5.78298 4.20177 5.90784 4.60729 5.90784C5.0128 5.90784 5.40848 5.78298 5.74056 5.55024C6.07263 5.31749 6.32499 4.98815 6.46334 4.60697H13.8217C13.9963 4.60697 14.1637 4.53762 14.2872 4.41419C14.4106 4.29076 14.4799 4.12335 14.4799 3.94879C14.4799 3.77423 14.4106 3.60682 14.2872 3.48339C14.1637 3.35996 13.9963 3.29062 13.8217 3.29062H6.46334C6.32499 2.90943 6.07263 2.58009 5.74056 2.34735C5.40848 2.1146 5.0128 1.98975 4.60729 1.98975C4.20177 1.98975 3.80609 2.1146 3.47402 2.34735C3.14194 2.58009 2.88958 2.90943 2.75123 3.29062H1.97458C1.80002 3.29062 1.63261 3.35996 1.50918 3.48339C1.38575 3.60682 1.31641 3.77423 1.31641 3.94879C1.31641 4.12335 1.38575 4.29076 1.50918 4.41419C1.63261 4.53762 1.80002 4.60697 1.97458 4.60697ZM4.60729 3.29062C4.73746 3.29062 4.86471 3.32922 4.97295 3.40154C5.08119 3.47386 5.16555 3.57665 5.21536 3.69692C5.26518 3.81718 5.27821 3.94952 5.25282 4.0772C5.22742 4.20487 5.16473 4.32214 5.07269 4.41419C4.98064 4.50624 4.86336 4.56892 4.73569 4.59432C4.60802 4.61972 4.47568 4.60668 4.35541 4.55687C4.23515 4.50705 4.13235 4.42269 4.06003 4.31445C3.98771 4.20622 3.94911 4.07897 3.94911 3.94879C3.94911 3.77423 4.01845 3.60682 4.14189 3.48339C4.26532 3.35996 4.43273 3.29062 4.60729 3.29062Z" fill="#FFB057"/>
<path d="M13.8217 11.1886H9.09605C8.95769 10.8074 8.70533 10.478 8.37326 10.2453C8.04119 10.0126 7.6455 9.8877 7.23999 9.8877C6.83447 9.8877 6.43879 10.0126 6.10672 10.2453C5.77465 10.478 5.52228 10.8074 5.38393 11.1886H1.97458C1.80002 11.1886 1.63261 11.2579 1.50918 11.3813C1.38575 11.5048 1.31641 11.6722 1.31641 11.8467C1.31641 12.0213 1.38575 12.1887 1.50918 12.3121C1.63261 12.4356 1.80002 12.5049 1.97458 12.5049H5.38393C5.52228 12.8861 5.77465 13.2154 6.10672 13.4482C6.43879 13.6809 6.83447 13.8058 7.23999 13.8058C7.6455 13.8058 8.04119 13.6809 8.37326 13.4482C8.70533 13.2154 8.95769 12.8861 9.09605 12.5049H13.8217C13.9963 12.5049 14.1637 12.4356 14.2872 12.3121C14.4106 12.1887 14.4799 12.0213 14.4799 11.8467C14.4799 11.6722 14.4106 11.5048 14.2872 11.3813C14.1637 11.2579 13.9963 11.1886 13.8217 11.1886ZM7.23999 12.5049C7.10981 12.5049 6.98256 12.4663 6.87433 12.394C6.76609 12.3217 6.68173 12.2189 6.63191 12.0986C6.5821 11.9783 6.56906 11.846 6.59446 11.7183C6.61986 11.5907 6.68254 11.4734 6.77459 11.3813C6.86664 11.2893 6.98391 11.2266 7.11159 11.2012C7.23926 11.1758 7.3716 11.1888 7.49186 11.2387C7.61213 11.2885 7.71492 11.3728 7.78724 11.4811C7.85956 11.5893 7.89817 11.7166 7.89817 11.8467C7.89817 12.0213 7.82882 12.1887 7.70539 12.3121C7.58196 12.4356 7.41455 12.5049 7.23999 12.5049Z" fill="#FFB057"/>
</svg>
