<svg width="380" height="83" viewBox="0 0 380 83" fill="none" xmlns="http://www.w3.org/2000/svg">
<path d="M54.9388 27.2067C54.3871 25.2877 53.612 23.5922 52.6136 22.1202C51.6152 20.6219 50.3934 19.3601 48.9483 18.3349C47.5296 17.2835 45.9006 16.4817 44.0614 15.9297C42.2485 15.3777 40.2385 15.1017 38.0315 15.1017C33.9065 15.1017 30.2807 16.1268 27.1541 18.1772C24.0538 20.2276 21.6366 23.2111 19.9025 27.1278C18.1684 31.0182 17.3014 35.7761 17.3014 41.4014C17.3014 47.0268 18.1553 51.8109 19.8631 55.7539C21.5709 59.6969 23.9881 62.7067 27.1147 64.7834C30.2413 66.8337 33.9328 67.8589 38.1892 67.8589C42.0514 67.8589 45.3488 67.1755 48.0813 65.8086C50.8401 64.4154 52.942 62.457 54.3871 59.9335C55.8584 57.41 56.5941 54.4264 56.5941 50.9829L60.0622 51.4955H39.2533V38.6413H73.0284V48.8142C73.0284 55.9116 71.5308 62.0101 68.5356 67.1097C65.5403 72.1831 61.4153 76.0998 56.1605 78.8599C50.9058 81.5937 44.889 82.9606 38.1103 82.9606C30.5435 82.9606 23.8962 81.2914 18.1684 77.953C12.4407 74.5883 7.97414 69.8173 4.76872 63.6399C1.58957 57.4363 0 50.076 0 41.5591C0 35.0138 0.945862 29.1782 2.83759 24.0523C4.75558 18.9001 7.43553 14.5365 10.8774 10.9615C14.3193 7.38654 18.3261 4.66588 22.8977 2.79953C27.4694 0.933176 32.422 0 37.7557 0C42.3273 0 46.5837 0.670309 50.5248 2.01093C54.4659 3.32526 57.9603 5.19161 61.0081 7.60998C64.0821 10.0283 66.5913 12.9067 68.5356 16.2451C70.4798 19.5572 71.7279 23.2111 72.2796 27.2067H54.9388Z" fill="url(#paint0_linear_411_479)"/>
<path d="M85.8468 81.8565V1.10404H118.164C124.102 1.10404 129.054 1.98464 133.022 3.74584C136.989 5.50705 139.971 7.9517 141.968 11.0798C143.965 14.1816 144.963 17.7566 144.963 21.8048C144.963 24.9591 144.333 27.7324 143.071 30.1245C141.81 32.4903 140.076 34.4355 137.869 35.9601C135.688 37.4584 133.192 38.523 130.381 39.1539V39.9425C133.455 40.074 136.332 40.9414 139.012 42.5449C141.718 44.1484 143.912 46.3959 145.594 49.2874C147.275 52.1526 148.116 55.5699 148.116 59.5392C148.116 63.8239 147.052 67.6486 144.924 71.0133C142.822 74.3517 139.708 76.9935 135.583 78.9387C131.458 80.8839 126.374 81.8565 120.331 81.8565H85.8468ZM102.912 67.8983H116.824C121.579 67.8983 125.048 66.9914 127.228 65.1777C129.409 63.3376 130.499 60.893 130.499 57.8437C130.499 55.6093 129.961 53.6378 128.884 51.9292C127.806 50.2206 126.269 48.88 124.272 47.9074C122.302 46.9348 119.95 46.4485 117.218 46.4485H102.912V67.8983ZM102.912 34.8955H115.563C117.901 34.8955 119.977 34.488 121.79 33.6732C123.629 32.832 125.074 31.6491 126.125 30.1245C127.202 28.5998 127.741 26.7729 127.741 24.6437C127.741 21.7259 126.703 19.3732 124.627 17.5857C122.578 15.7983 119.661 14.9045 115.878 14.9045H102.912V34.8955Z" fill="url(#paint1_linear_411_479)"/>
<path d="M233.391 41.4803C233.391 50.2863 231.723 57.778 228.386 63.9553C225.076 70.1327 220.557 74.8512 214.829 78.1107C209.127 81.3439 202.717 82.9606 195.596 82.9606C188.424 82.9606 181.986 81.3308 176.285 78.0713C170.584 74.8117 166.078 70.0933 162.767 63.9159C159.457 57.7386 157.801 50.26 157.801 41.4803C157.801 32.6743 159.457 25.1826 162.767 19.0052C166.078 12.8279 170.584 8.12257 176.285 4.88932C181.986 1.62977 188.424 0 195.596 0C202.717 0 209.127 1.62977 214.829 4.88932C220.557 8.12257 225.076 12.8279 228.386 19.0052C231.723 25.1826 233.391 32.6743 233.391 41.4803ZM216.09 41.4803C216.09 35.7761 215.236 30.9656 213.528 27.0489C211.847 23.1322 209.469 20.1618 206.395 18.1378C203.321 16.1137 199.721 15.1017 195.596 15.1017C191.471 15.1017 187.872 16.1137 184.798 18.1378C181.724 20.1618 179.333 23.1322 177.625 27.0489C175.943 30.9656 175.103 35.7761 175.103 41.4803C175.103 47.1845 175.943 51.9949 177.625 55.9116C179.333 59.8283 181.724 62.7987 184.798 64.8228C187.872 66.8469 191.471 67.8589 195.596 67.8589C199.721 67.8589 203.321 66.8469 206.395 64.8228C209.469 62.7987 211.847 59.8283 213.528 55.9116C215.236 51.9949 216.09 47.1845 216.09 41.4803Z" fill="url(#paint2_linear_411_479)"/>
<path d="M289.818 24.3283C289.503 21.1476 288.15 18.6766 285.759 16.9154C283.368 15.1542 280.123 14.2736 276.024 14.2736C273.239 14.2736 270.888 14.6679 268.97 15.4565C267.052 16.2188 265.58 17.2835 264.556 18.6504C263.557 20.0173 263.058 21.5682 263.058 23.3031C263.005 24.7489 263.308 26.0106 263.964 27.0884C264.648 28.1661 265.58 29.0993 266.763 29.8879C267.945 30.6502 269.311 31.3205 270.861 31.8988C272.411 32.4508 274.067 32.924 275.827 33.3183L283.079 35.0532C286.599 35.8418 289.831 36.8933 292.774 38.2076C295.716 39.5219 298.265 41.1386 300.419 43.0575C302.574 44.9764 304.242 47.2371 305.425 49.8394C306.633 52.4418 307.251 55.4253 307.277 58.79C307.251 63.7319 305.99 68.0166 303.494 71.6442C301.024 75.2455 297.451 78.045 292.774 80.0428C288.123 82.0143 282.514 83 275.945 83C269.429 83 263.754 82.0011 258.92 80.0033C254.112 78.0055 250.355 75.0483 247.648 71.1316C244.968 67.1886 243.563 62.3124 243.431 56.5031H259.944C260.128 59.2106 260.904 61.4713 262.27 63.285C263.662 65.0725 265.515 66.4263 267.827 67.3463C270.165 68.2401 272.806 68.6869 275.748 68.6869C278.638 68.6869 281.148 68.2663 283.276 67.4252C285.43 66.584 287.099 65.4143 288.281 63.9159C289.463 62.4176 290.054 60.6958 290.054 58.7506C290.054 56.9368 289.516 55.4122 288.439 54.1767C287.388 52.9412 285.837 51.8898 283.788 51.0223C281.765 50.1549 279.282 49.3663 276.339 48.6565L267.551 46.4485C260.746 44.7924 255.373 42.2032 251.432 38.6808C247.491 35.1584 245.533 30.4136 245.56 24.4466C245.533 19.5572 246.834 15.2857 249.461 11.6318C252.115 7.97799 255.754 5.12589 260.378 3.07554C265.002 1.02518 270.257 0 276.142 0C282.133 0 287.361 1.02518 291.828 3.07554C296.321 5.12589 299.815 7.97799 302.311 11.6318C304.807 15.2857 306.095 19.5178 306.173 24.3283H289.818Z" fill="url(#paint3_linear_411_479)"/>
<path d="M362.541 24.3283C362.226 21.1476 360.873 18.6766 358.482 16.9154C356.091 15.1542 352.846 14.2736 348.747 14.2736C345.962 14.2736 343.611 14.6679 341.693 15.4565C339.775 16.2188 338.303 17.2835 337.279 18.6504C336.28 20.0173 335.781 21.5682 335.781 23.3031C335.728 24.7489 336.031 26.0106 336.687 27.0884C337.371 28.1661 338.303 29.0993 339.486 29.8879C340.668 30.6502 342.034 31.3205 343.584 31.8988C345.134 32.4508 346.79 32.924 348.55 33.3183L355.802 35.0532C359.322 35.8418 362.554 36.8933 365.497 38.2076C368.439 39.5219 370.988 41.1386 373.142 43.0575C375.297 44.9764 376.965 47.2371 378.148 49.8394C379.356 52.4418 379.974 55.4253 380 58.79C379.974 63.7319 378.713 68.0166 376.217 71.6442C373.747 75.2455 370.174 78.045 365.497 80.0428C360.846 82.0143 355.237 83 348.668 83C342.152 83 336.477 82.0011 331.643 80.0033C326.835 78.0055 323.077 75.0483 320.371 71.1316C317.691 67.1886 316.286 62.3124 316.154 56.5031H332.667C332.851 59.2106 333.626 61.4713 334.993 63.285C336.385 65.0725 338.238 66.4263 340.55 67.3463C342.888 68.2401 345.529 68.6869 348.471 68.6869C351.361 68.6869 353.871 68.2663 355.999 67.4252C358.153 66.584 359.822 65.4143 361.004 63.9159C362.186 62.4176 362.777 60.6958 362.777 58.7506C362.777 56.9368 362.239 55.4122 361.162 54.1767C360.111 52.9412 358.56 51.8898 356.511 51.0223C354.488 50.1549 352.005 49.3663 349.062 48.6565L340.274 46.4485C333.469 44.7924 328.096 42.2032 324.155 38.6808C320.214 35.1584 318.256 30.4136 318.283 24.4466C318.256 19.5572 319.557 15.2857 322.184 11.6318C324.838 7.97799 328.477 5.12589 333.101 3.07554C337.725 1.02518 342.98 0 348.865 0C354.856 0 360.084 1.02518 364.551 3.07554C369.044 5.12589 372.538 7.97799 375.034 11.6318C377.53 15.2857 378.818 19.5178 378.896 24.3283H362.541Z" fill="url(#paint4_linear_411_479)"/>
<defs>
<linearGradient id="paint0_linear_411_479" x1="189.688" y1="-24.9076" x2="189.688" y2="109.615" gradientUnits="userSpaceOnUse">
<stop stop-color="#916BFE"/>
<stop offset="1" stop-color="#6B94FE"/>
</linearGradient>
<linearGradient id="paint1_linear_411_479" x1="189.688" y1="-24.9076" x2="189.688" y2="109.615" gradientUnits="userSpaceOnUse">
<stop stop-color="#916BFE"/>
<stop offset="1" stop-color="#6B94FE"/>
</linearGradient>
<linearGradient id="paint2_linear_411_479" x1="189.688" y1="-24.9076" x2="189.688" y2="109.615" gradientUnits="userSpaceOnUse">
<stop stop-color="#916BFE"/>
<stop offset="1" stop-color="#6B94FE"/>
</linearGradient>
<linearGradient id="paint3_linear_411_479" x1="189.688" y1="-24.9076" x2="189.688" y2="109.615" gradientUnits="userSpaceOnUse">
<stop stop-color="#916BFE"/>
<stop offset="1" stop-color="#6B94FE"/>
</linearGradient>
<linearGradient id="paint4_linear_411_479" x1="189.688" y1="-24.9076" x2="189.688" y2="109.615" gradientUnits="userSpaceOnUse">
<stop stop-color="#916BFE"/>
<stop offset="1" stop-color="#6B94FE"/>
</linearGradient>
</defs>
</svg>
