<svg width="179" height="39" viewBox="0 0 179 39" fill="none" xmlns="http://www.w3.org/2000/svg">
<path d="M25.7415 12.7415C25.483 11.8428 25.1198 11.0488 24.652 10.3594C24.1842 9.65767 23.6117 9.06676 22.9347 8.58665C22.2699 8.09422 21.5066 7.71875 20.6449 7.46023C19.7955 7.20171 18.8537 7.07245 17.8196 7.07245C15.8868 7.07245 14.188 7.55256 12.723 8.51278C11.2704 9.47301 10.1378 10.8703 9.32528 12.7045C8.51278 14.5265 8.10653 16.7547 8.10653 19.3892C8.10653 22.0237 8.50663 24.2642 9.30682 26.1108C10.107 27.9574 11.2396 29.367 12.7045 30.3395C14.1695 31.2997 15.8991 31.7798 17.8935 31.7798C19.7031 31.7798 21.2481 31.4598 22.5284 30.8196C23.821 30.1671 24.8059 29.25 25.483 28.0682C26.1723 26.8864 26.517 25.4891 26.517 23.8764L28.142 24.1165H18.392V18.0966H34.2173V22.8608C34.2173 26.1847 33.5156 29.0407 32.1122 31.429C30.7088 33.8049 28.776 35.6392 26.3139 36.9318C23.8518 38.2121 21.0327 38.8523 17.8565 38.8523C14.3111 38.8523 11.1965 38.0705 8.51278 36.5071C5.82907 34.9313 3.73627 32.697 2.23438 29.804C0.744792 26.8987 0 23.4517 0 19.4631C0 16.3977 0.443182 13.6648 1.32955 11.2642C2.22822 8.85133 3.4839 6.80777 5.09659 5.13352C6.70928 3.45928 8.58665 2.18513 10.7287 1.31108C12.8707 0.437027 15.1913 0 17.6903 0C19.8324 0 21.8267 0.31392 23.6733 0.941762C25.5199 1.55729 27.1572 2.43135 28.5852 3.56392C30.0256 4.6965 31.2012 6.04451 32.1122 7.60795C33.0232 9.15909 33.608 10.8703 33.8665 12.7415H25.7415Z" fill="url(#paint0_linear_76_2029)"/>
<path d="M40.2234 38.3352V0.517046H55.3654C58.1476 0.517046 60.4682 0.929451 62.3271 1.75426C64.186 2.57907 65.5832 3.72396 66.5188 5.18892C67.4544 6.64157 67.9222 8.31582 67.9222 10.2116C67.9222 11.6889 67.6268 12.9877 67.0359 14.108C66.445 15.2159 65.6325 16.1269 64.5984 16.8409C63.5766 17.5426 62.4071 18.0412 61.0898 18.3366V18.706C62.5302 18.7675 63.8782 19.1738 65.1339 19.9247C66.4019 20.6757 67.4298 21.7282 68.2177 23.0824C69.0056 24.4242 69.3995 26.0246 69.3995 27.8835C69.3995 29.8902 68.9009 31.6813 67.9038 33.2571C66.9189 34.8205 65.4601 36.0578 63.5273 36.9688C61.5946 37.8797 59.2125 38.3352 56.381 38.3352H40.2234ZM48.2191 31.7983H54.7376C56.9658 31.7983 58.5908 31.3736 59.6126 30.5241C60.6344 29.6624 61.1452 28.5175 61.1452 27.0895C61.1452 26.0431 60.8929 25.1198 60.3881 24.3196C59.8834 23.5194 59.1632 22.8916 58.2276 22.4361C57.3043 21.9806 56.2025 21.7528 54.9222 21.7528H48.2191V31.7983ZM48.2191 16.3423H54.1467C55.2423 16.3423 56.2148 16.1515 57.0643 15.7699C57.926 15.3759 58.6031 14.822 59.0955 14.108C59.6003 13.3939 59.8526 12.5384 59.8526 11.5412C59.8526 10.1747 59.3664 9.07292 58.3938 8.2358C57.4336 7.39867 56.0671 6.98011 54.2944 6.98011H48.2191V16.3423Z" fill="url(#paint1_linear_76_2029)"/>
<path d="M109.355 19.4261C109.355 23.5502 108.573 27.0587 107.01 29.9517C105.459 32.8447 103.341 35.0545 100.658 36.581C97.9863 38.0952 94.9825 38.8523 91.6463 38.8523C88.2855 38.8523 85.2694 38.089 82.598 36.5625C79.9266 35.036 77.8153 32.8262 76.2642 29.9332C74.7131 27.0402 73.9375 23.5379 73.9375 19.4261C73.9375 15.3021 74.7131 11.7936 76.2642 8.90057C77.8153 6.00758 79.9266 3.80398 82.598 2.28977C85.2694 0.763259 88.2855 0 91.6463 0C94.9825 0 97.9863 0.763259 100.658 2.28977C103.341 3.80398 105.459 6.00758 107.01 8.90057C108.573 11.7936 109.355 15.3021 109.355 19.4261ZM101.249 19.4261C101.249 16.7547 100.848 14.5019 100.048 12.6676C99.2604 10.8333 98.1463 9.44224 96.706 8.49432C95.2656 7.5464 93.5791 7.07245 91.6463 7.07245C89.7135 7.07245 88.027 7.5464 86.5866 8.49432C85.1463 9.44224 84.026 10.8333 83.2259 12.6676C82.438 14.5019 82.044 16.7547 82.044 19.4261C82.044 22.0975 82.438 24.3504 83.2259 26.1847C84.026 28.0189 85.1463 29.41 86.5866 30.358C88.027 31.3059 89.7135 31.7798 91.6463 31.7798C93.5791 31.7798 95.2656 31.3059 96.706 30.358C98.1463 29.41 99.2604 28.0189 100.048 26.1847C100.848 24.3504 101.249 22.0975 101.249 19.4261Z" fill="url(#paint2_linear_76_2029)"/>
<path d="M135.794 11.3935C135.646 9.90388 135.012 8.74669 133.892 7.92188C132.771 7.09706 131.251 6.68466 129.331 6.68466C128.026 6.68466 126.924 6.86932 126.025 7.23864C125.127 7.59564 124.437 8.09423 123.957 8.73438C123.489 9.37453 123.255 10.1009 123.255 10.9134C123.231 11.5904 123.372 12.1813 123.68 12.6861C124 13.1908 124.437 13.6278 124.991 13.9972C125.545 14.3542 126.185 14.6681 126.912 14.9389C127.638 15.1974 128.413 15.419 129.238 15.6037L132.636 16.4162C134.286 16.7855 135.8 17.2779 137.179 17.8935C138.557 18.509 139.752 19.2661 140.761 20.1648C141.77 21.0634 142.552 22.1222 143.106 23.3409C143.672 24.5597 143.962 25.9569 143.974 27.5327C143.962 29.8471 143.371 31.8537 142.201 33.5526C141.044 35.2391 139.37 36.5502 137.179 37.4858C135 38.4091 132.371 38.8707 129.294 38.8707C126.241 38.8707 123.582 38.4029 121.316 37.4673C119.064 36.5317 117.303 35.1468 116.035 33.3125C114.779 31.4659 114.121 29.1823 114.059 26.4616H121.797C121.883 27.7296 122.246 28.7884 122.886 29.6378C123.538 30.4749 124.406 31.1089 125.49 31.5398C126.585 31.9583 127.823 32.1676 129.201 32.1676C130.556 32.1676 131.731 31.9706 132.728 31.5767C133.738 31.1828 134.52 30.6349 135.074 29.9332C135.627 29.2315 135.904 28.4252 135.904 27.5142C135.904 26.6648 135.652 25.9508 135.147 25.3722C134.655 24.7936 133.929 24.3011 132.968 23.8949C132.02 23.4886 130.857 23.1193 129.478 22.7869L125.36 21.7528C122.172 20.9773 119.654 19.7647 117.808 18.1151C115.961 16.4654 115.044 14.2434 115.056 11.4489C115.044 9.15909 115.654 7.15862 116.885 5.44745C118.128 3.73627 119.833 2.40057 122 1.44034C124.166 0.480114 126.628 0 129.386 0C132.193 0 134.643 0.480114 136.735 1.44034C138.841 2.40057 140.478 3.73627 141.647 5.44745C142.817 7.15862 143.42 9.14062 143.457 11.3935H135.794Z" fill="url(#paint3_linear_76_2029)"/>
<path d="M169.868 11.3935C169.72 9.90388 169.086 8.74669 167.966 7.92188C166.846 7.09706 165.325 6.68466 163.405 6.68466C162.1 6.68466 160.998 6.86932 160.099 7.23864C159.201 7.59564 158.511 8.09423 158.031 8.73438C157.563 9.37453 157.33 10.1009 157.33 10.9134C157.305 11.5904 157.446 12.1813 157.754 12.6861C158.074 13.1908 158.511 13.6278 159.065 13.9972C159.619 14.3542 160.259 14.6681 160.986 14.9389C161.712 15.1974 162.488 15.419 163.312 15.6037L166.71 16.4162C168.36 16.7855 169.874 17.2779 171.253 17.8935C172.632 18.509 173.826 19.2661 174.835 20.1648C175.845 21.0634 176.626 22.1222 177.18 23.3409C177.747 24.5597 178.036 25.9569 178.048 27.5327C178.036 29.8471 177.445 31.8537 176.276 33.5526C175.118 35.2391 173.444 36.5502 171.253 37.4858C169.074 38.4091 166.446 38.8707 163.368 38.8707C160.315 38.8707 157.656 38.4029 155.391 37.4673C153.138 36.5317 151.377 35.1468 150.109 33.3125C148.854 31.4659 148.195 29.1823 148.134 26.4616H155.871C155.957 27.7296 156.32 28.7884 156.96 29.6378C157.613 30.4749 158.481 31.1089 159.564 31.5398C160.66 31.9583 161.897 32.1676 163.276 32.1676C164.63 32.1676 165.805 31.9706 166.803 31.5767C167.812 31.1828 168.594 30.6349 169.148 29.9332C169.702 29.2315 169.979 28.4252 169.979 27.5142C169.979 26.6648 169.726 25.9508 169.222 25.3722C168.729 24.7936 168.003 24.3011 167.043 23.8949C166.095 23.4886 164.931 23.1193 163.553 22.7869L159.435 21.7528C156.246 20.9773 153.729 19.7647 151.882 18.1151C150.036 16.4654 149.118 14.2434 149.131 11.4489C149.118 9.15909 149.728 7.15862 150.959 5.44745C152.202 3.73627 153.907 2.40057 156.074 1.44034C158.241 0.480114 160.703 0 163.46 0C166.267 0 168.717 0.480114 170.81 1.44034C172.915 2.40057 174.552 3.73627 175.722 5.44745C176.891 7.15862 177.494 9.14062 177.531 11.3935H169.868Z" fill="url(#paint4_linear_76_2029)"/>
<path d="M91.8778 28.3352C90.318 28.3295 88.9758 27.9703 87.8513 27.2574C86.7328 26.5445 85.8712 25.512 85.2666 24.1598C84.6681 22.8076 84.3719 21.181 84.3779 19.28C84.3779 17.3847 84.6772 15.7694 85.2757 14.4342C85.8803 13.099 86.7418 12.0834 87.8603 11.3875C88.9849 10.686 90.324 10.3352 91.8778 10.3352C93.4316 10.3352 94.7677 10.686 95.8862 11.3875C97.0108 12.0891 97.8753 13.1075 98.4799 14.4427C99.0845 15.7723 99.3838 17.3847 99.3777 19.28C99.3777 21.1867 99.0754 22.8161 98.4708 24.1683C97.8723 25.5205 97.0138 26.553 95.8953 27.2659C94.7768 27.9788 93.4376 28.3352 91.8778 28.3352ZM91.8778 25.2885C92.9419 25.2885 93.7913 24.7878 94.4261 23.7864C95.061 22.785 95.3753 21.2829 95.3693 19.28C95.3693 17.9618 95.2242 16.8642 94.934 15.9873C94.6498 15.1103 94.2448 14.4512 93.7188 14.0099C93.1988 13.5686 92.5852 13.3479 91.8778 13.3479C90.8198 13.3479 89.9734 13.843 89.3385 14.8331C88.7037 15.8232 88.3833 17.3055 88.3772 19.28C88.3772 20.6153 88.5193 21.7298 88.8035 22.6237C89.0937 23.512 89.5018 24.1796 90.0278 24.6266C90.5538 25.0679 91.1704 25.2885 91.8778 25.2885Z" fill="url(#paint5_linear_76_2029)"/>
<defs>
<linearGradient id="paint0_linear_76_2029" x1="88.8778" y1="-11.6648" x2="88.8778" y2="51.3352" gradientUnits="userSpaceOnUse">
<stop stop-color="#916BFE"/>
<stop offset="1" stop-color="#6B94FE"/>
</linearGradient>
<linearGradient id="paint1_linear_76_2029" x1="88.8778" y1="-11.6648" x2="88.8778" y2="51.3352" gradientUnits="userSpaceOnUse">
<stop stop-color="#916BFE"/>
<stop offset="1" stop-color="#6B94FE"/>
</linearGradient>
<linearGradient id="paint2_linear_76_2029" x1="88.8778" y1="-11.6648" x2="88.8778" y2="51.3352" gradientUnits="userSpaceOnUse">
<stop stop-color="#916BFE"/>
<stop offset="1" stop-color="#6B94FE"/>
</linearGradient>
<linearGradient id="paint3_linear_76_2029" x1="88.8778" y1="-11.6648" x2="88.8778" y2="51.3352" gradientUnits="userSpaceOnUse">
<stop stop-color="#916BFE"/>
<stop offset="1" stop-color="#6B94FE"/>
</linearGradient>
<linearGradient id="paint4_linear_76_2029" x1="88.8778" y1="-11.6648" x2="88.8778" y2="51.3352" gradientUnits="userSpaceOnUse">
<stop stop-color="#916BFE"/>
<stop offset="1" stop-color="#6B94FE"/>
</linearGradient>
<linearGradient id="paint5_linear_76_2029" x1="91.8778" y1="10.3352" x2="91.8778" y2="28.3352" gradientUnits="userSpaceOnUse">
<stop stop-color="#577CFF"/>
<stop offset="1" stop-color="#577CFF" stop-opacity="0"/>
</linearGradient>
</defs>
</svg>
