<?xml version="1.0" encoding="UTF-8"?><svg id="Layer_1" xmlns="http://www.w3.org/2000/svg" viewBox="0 0 836.24 358.4"><defs><style>.cls-1{fill:#65328c;}.cls-2{fill:#313272;}.cls-3{fill:#1c76b7;}.cls-4{fill:#2b398a;}</style></defs><path class="cls-3" d="M720.05,199.78c14.26-5.81,17.7-6.18,40.18-6.05,7.64,.05,13.56-1.83,17.8-4.94,12.56-9.2,9.83-33.07-6.82-37.62-7.12-1.94-15.64-.88-22.94,1.22-17.87,5.17-30.88,22.17-35.5,40.03-2.6,10-1.49,10.92,7.27,7.36Z"/><g><g><path class="cls-2" d="M100.62,111.86c.86,.07,1.49,.59,1.91,1.56,.33,.75,.51,1.56,.51,2.41,0,.23-.03,.67-.11,1.32s-.5,1.19-1.28,1.6l-3.87,.63c.27,.9,.4,1.89,.4,2.97,0,1.98-.4,4.32-1.2,7.02l-6.6,20.9c-2.44-.89-4.48-1.87-6.12-2.92-1.66-1.06-2.75-2.55-3.27-4.45-5.9,5-11.48,7.5-16.76,7.52-2.36,0-5.9-1.03-10.62-3.11-4.72-2.08-7.85-8.41-9.38-18.99-.16-2.1-.24-4.13-.25-6.12-.04-12.91,2.97-24.39,9.06-34.44,6.08-10.05,13.86-15.99,23.31-17.82,.6-.04,1.18-.06,1.75-.06,7.71-.03,13.4,2.83,17.09,8.59,2.48,3.92,3.73,8.39,3.75,13.4,0,2.88-.4,5.95-1.2,9.21-.89,2.7-2.98,4.28-6.27,4.73-.48,.08-.95,.12-1.4,.12-2.7,0-5.15-1.03-7.36-3.12-.19-.23-.28-.49-.28-.79v-.28c0-.19,0-.38,.05-.59,.04-.21,.07-.35,.11-.42,2.67-6.11,4.01-10.73,3.99-13.88,0-.22-.05-1.18-.15-2.86-.1-1.68-1.07-2.8-2.9-3.36-.56-.18-1.14-.27-1.74-.27-1.35,0-2.79,.48-4.31,1.41-7.28,5.38-12.44,11.96-15.48,19.76-2.75,6.93-4.1,14.21-4.08,21.84,0,.9,.03,1.81,.06,2.75,1.53,8.86,4.61,13.42,9.25,13.66h.57c4.49-.02,9.45-3.01,14.9-8.97,.26-.75,.52-1.52,.78-2.31,.82-2.36,1.58-4.72,2.28-7.08l-6.9,1.2c-.19,.04-.37,.06-.56,.06-2.88,0-4.64-3.11-5.25-9.36,0-.37,.02-.7,.08-.98,.05-.28,.14-.42,.24-.42l27.28-.09Z"/><path class="cls-2" d="M102.2,132.22c.89-2.84,2.71-8.84,5.46-17.98,2.76-9.14,5.4-18.2,7.91-27.19,2.5-8.99,3.84-14.7,3.98-17.13,7.15,1.06,10.74,4.7,10.76,10.91,0,2.06-.38,4.4-1.16,7.02l-18.64,62.42c-3.89-1.29-6.5-2.79-7.79-4.49-1.3-1.7-1.95-3.54-1.96-5.52,0-2.17,.47-4.85,1.43-8.03Z"/><path class="cls-2" d="M124.24,144.61c-2.14-3.37-3.22-7.27-3.24-11.72,0-1.16,.07-2.36,.22-3.59,.65-5.95,2.58-11.46,5.78-16.52,.65,4.12,3.32,7.6,8.01,10.47-1.03,3.97-1.54,7.6-1.54,10.9,0,1.49,.12,2.91,.35,4.26,.77,2.95,2,4.43,3.72,4.42h.17c.23,.04,.44,.06,.67,.05,1.01,0,2.06-.55,3.14-1.64,2.38-2.78,4.18-6.56,5.4-11.36,1.22-4.79,1.83-8.84,1.82-12.13,0-1.42-.11-2.78-.3-4.09-.76-2.99-2.04-4.48-3.84-4.48h-.11c-.19-.04-.4-.06-.62-.05-1.01,0-2.07,.57-3.19,1.69-.71,.64-1.06,1.24-1.06,1.8,0,.08,.02,.17,.06,.28,.19,.63,.65,1.22,1.38,1.76,.73,.54,1.53,1.03,2.39,1.48,.86,.48,1.49,.91,1.91,1.28,.86,.79,1.3,1.66,1.31,2.63,0,.23-.02,.45-.06,.67-.26,1.31-.81,2.35-1.65,3.12-.84,.77-1.63,1.15-2.38,1.16-.3,0-.61-.05-.95-.16-2.43-1.04-4.48-2.21-6.12-3.51-4.09-3.32-6.14-6.44-6.15-9.35,0-1.31,.4-2.58,1.21-3.82,1.27-1.28,2.62-2.38,4.03-3.32,3.06-1.96,6.21-2.94,9.42-2.95,.34,0,.67,.02,1.01,.06,.56-.04,1.11-.06,1.62-.06,4.53-.02,8.31,1.83,11.36,5.51,2.14,3.59,3.22,7.59,3.24,12,0,2.88-.43,5.91-1.32,9.1-2.21,8.16-6.33,14.41-12.34,18.73-3.14,1.91-6.31,2.88-9.53,2.89h-.9c-.53,.04-1.03,.06-1.51,.06-4.61,.02-8.4-1.84-11.42-5.57Z"/><path class="cls-2" d="M162.76,131.84c.89-2.84,2.71-8.84,5.46-17.97,2.76-9.14,5.4-18.21,7.91-27.22,2.5-9.01,3.84-14.71,3.98-17.11,7.15,1.06,10.74,4.68,10.76,10.85,0,2.06-.38,4.4-1.16,7.02l-6.83,22.92,.06-.06c4.92-5.78,9.29-8.68,13.11-8.69,3.1-.01,5.86,1.83,8.27,5.53,1.32,2.76,1.98,5.81,1.99,9.14,.02,3.78-.83,7.93-2.54,12.47-3.19,8.5-8.03,14.94-14.52,19.3-2.28,1.32-4.27,1.98-5.95,1.98-1.2,0-2.25-.31-3.15-.94-2.21-1.53-4.09-4.38-5.64-8.57,7.37-2,12.71-5.68,16.05-11.02,3.33-5.34,5.06-11.22,5.19-17.62-.12-.93-.36-1.45-.71-1.54s-.61-.14-.76-.14c-.37,0-.77,.15-1.17,.45-2.55,2.03-5.58,5.6-9.11,10.69-3.54,5.1-6.55,10.28-9.04,15.52l-3.88,13.03c-.41-.18-.84-.35-1.29-.5-3.78-1.11-6.21-2.42-7.29-3.93-1.07-1.51-1.61-3.05-1.62-4.63,0-2.28,.62-5.28,1.88-8.99Z"/><path class="cls-2" d="M243.33,108.61c-7.59,2.13-13.83,6.19-18.74,12.19-4.9,6-7.5,12.26-7.82,18.77,0,.9,.22,1.42,.63,1.57,.41,.15,.71,.22,.9,.22,.37,0,.75-.19,1.12-.56,5.37-6.72,11.55-15.78,18.54-27.17,3.45,1.52,5.79,3.14,7.03,4.86,1.24,1.72,1.87,3.34,1.87,4.88,0,1.24-.29,2.61-.89,4.1l-7.55,22.37-3.6-2.12c-.23-.15-.44-.3-.62-.45-1.31-.82-2.34-1.68-3.06-2.6-.74-.91-1.11-2.06-1.11-3.45,0-.34,0-.67,.05-1.01,.22-1.87,1.2-4.53,2.95-7.98l-6.81,12.04c-2.3,3.52-4.36,5.34-6.15,5.43-1.79,.11-2.77,.15-2.92,.15-3.26,.01-6.25-1.83-9-5.52-1.36-2.8-2.04-5.85-2.05-9.15-.02-3.66,.8-7.63,2.42-11.91,3.08-8.16,7.85-14.41,14.31-18.74,3.36-1.96,6.65-2.94,9.87-2.95,.71,0,1.42,.05,2.13,.16,3.89,.55,6.73,2.84,8.5,6.87Z"/><path class="cls-2" d="M247.68,131.72c.88-2.85,2.71-8.84,5.46-17.98,2.76-9.13,5.39-18.2,7.9-27.19,2.51-8.99,3.85-14.7,3.98-17.13,7.15,1.06,10.74,4.7,10.75,10.91,0,2.06-.37,4.4-1.15,7.02l-18.65,62.42c-3.89-1.3-6.49-2.8-7.79-4.49-1.29-1.7-1.95-3.54-1.95-5.52,0-2.17,.47-4.84,1.43-8.03Z"/><path class="cls-2" d="M323.57,69.16c.53-.04,1.04-.06,1.57-.06,7.82-.02,13.56,2.84,17.21,8.59,2.51,3.92,3.79,8.4,3.81,13.45,0,2.84-.4,5.9-1.2,9.15-.93,2.7-3.01,4.26-6.27,4.68-.53,.07-1.03,.12-1.52,.12-2.69,0-5.11-1.01-7.25-3.06-.23-.23-.34-.48-.34-.78v-.28c0-.19,.02-.38,.08-.59,.06-.21,.08-.35,.08-.42,2.67-6.11,4.01-10.73,4-13.88,0-.22-.05-1.18-.12-2.86-.09-1.68-1.07-2.8-2.93-3.36-.57-.19-1.12-.28-1.69-.27-1.35,0-2.78,.48-4.31,1.42-7.28,5.38-12.45,11.96-15.54,19.75-2.71,6.89-4.04,14.14-4.02,21.74,0,.94,.02,1.87,.06,2.81,1.67,9.2,4.93,13.78,9.75,13.77,.79,0,2.94-.47,6.46-1.42,3.51-.95,8.6-6.43,15.26-16.44,.26-.38,.6-.57,1.01-.57,.19,0,.51,.08,.98,.25,.47,.17,.99,.57,1.55,1.2,.48,.48,.74,.95,.74,1.4,0,.11-.02,.21-.06,.28-9.11,17.17-18.64,25.77-28.6,25.8-.56,0-3.6-.25-9.11-.75-5.53-.51-9.43-7.62-11.72-21.34-.15-2.06-.23-4.1-.24-6.12-.05-12.87,2.97-24.33,9.03-34.38,6.07-10.05,13.85-15.99,23.34-17.82Z"/><path class="cls-2" d="M346.39,143.84c-2.14-3.36-3.22-7.26-3.24-11.72,0-1.16,.07-2.36,.22-3.59,.65-5.95,2.58-11.46,5.78-16.52,.65,4.11,3.32,7.6,8.01,10.47-1.03,3.97-1.54,7.6-1.54,10.89,0,1.49,.12,2.92,.35,4.27,.77,2.95,2,4.42,3.72,4.42h.17c.23,.04,.44,.05,.67,.05,1.01,0,2.06-.55,3.14-1.64,2.38-2.78,4.18-6.56,5.4-11.35,1.22-4.79,1.83-8.84,1.82-12.13,0-1.42-.11-2.78-.3-4.1-.76-2.99-2.04-4.48-3.84-4.47h-.11c-.19-.04-.4-.06-.62-.06-1.01,0-2.07,.57-3.19,1.7-.71,.64-1.06,1.24-1.06,1.8,0,.08,.02,.17,.06,.28,.19,.63,.65,1.22,1.38,1.76,.73,.54,1.53,1.03,2.39,1.48,.86,.48,1.49,.91,1.91,1.28,.86,.78,1.3,1.66,1.31,2.63,0,.23-.02,.45-.06,.67-.26,1.31-.81,2.35-1.65,3.12-.84,.77-1.63,1.16-2.38,1.16-.3,0-.61-.05-.95-.17-2.43-1.04-4.48-2.21-6.12-3.51-4.09-3.32-6.14-6.44-6.15-9.35,0-1.31,.4-2.59,1.21-3.82,1.27-1.28,2.62-2.39,4.03-3.33,3.06-1.95,6.21-2.94,9.42-2.95,.34,0,.67,.02,1.01,.05,.56-.04,1.11-.06,1.62-.06,4.53-.02,8.31,1.83,11.36,5.51,2.14,3.58,3.22,7.59,3.24,12,0,2.88-.43,5.92-1.32,9.1-2.21,8.16-6.33,14.41-12.34,18.73-3.14,1.92-6.31,2.88-9.53,2.89h-.9c-.53,.04-1.03,.06-1.51,.07-4.61,.01-8.4-1.84-11.42-5.58Z"/><path class="cls-2" d="M393.39,101.81c6.14,.17,9.21,2.15,9.23,5.97,0,1.39-.39,2.99-1.16,4.83,1.03-3.64,2.24-6.54,3.62-8.71,1.16-1.83,2.55-2.76,4.2-2.76,.3,0,.61,.04,.95,.11,7,1.51,10.51,4.98,10.53,10.4,0,.53-.03,1.05-.11,1.58,2.33-8.12,5.28-12.2,8.88-12.21h.17c4.64,1.03,8.24,2.95,10.79,5.74,1.73,1.9,2.59,4.27,2.6,7.11,0,1.35-.18,2.77-.54,4.27l-9.72,30.95c-7.08-2.59-10.63-6.51-10.64-11.75,0-1.09,.14-2.23,.44-3.43l7.89-23.65c.04-.15,.06-.3,.06-.45,0-.64-.27-1.18-.82-1.62-.54-.45-1.26-.76-2.17-.95l-14.45,41.97c-3.78-1.93-6.63-4.09-8.55-6.48-1.32-1.6-1.97-3.43-1.98-5.49,0-.97,.14-2,.44-3.09l7.38-23.21c.04-.19,.06-.36,.06-.51,0-.6-.33-1.1-.99-1.51-.65-.41-1.43-.69-2.33-.84l-13.78,41.13c-4.39-1.59-7.44-3.79-9.17-6.59-.83-1.3-1.24-2.91-1.25-4.82,0-2.17,.5-4.73,1.54-7.69l8.88-28.32Z"/><path class="cls-2" d="M482.87,106.16c1.58,3.18,2.38,6.67,2.4,10.48,0,3.29-.9,7.92-2.71,13.88-1.81,5.95-5.89,11.09-12.23,15.42-3.14,2-5.92,2.99-8.35,3-3.78,.02-6.71-2.35-8.78-7.09,7.36-2.13,12.69-6.18,15.98-12.18,3.29-6,4.98-12.23,5.07-18.71,0-.93-.33-1.52-.96-1.74-.19-.07-.36-.11-.51-.11-.41,0-.81,.19-1.17,.57-4.96,6.23-10.6,14.42-16.92,24.59-2.63,8.65-5.16,17.36-7.6,26.15-2.44,8.78-3.73,14.41-3.87,16.88-7.15-1.06-10.74-4.67-10.75-10.85,0-2.06,.37-4.4,1.15-7.02l17.42-58.77c3.41,1.15,6.08,2.52,7.98,4.12,1.54,1.3,2.32,3.21,2.33,5.72,0,.67-.06,1.41-.16,2.19l3.57-6.46c2.34-3.53,5.22-5.39,8.62-5.59h.45c3.29-.01,6.3,1.83,9.05,5.53Z"/><path class="cls-2" d="M521.88,107.65c-7.59,2.12-13.83,6.19-18.74,12.19-4.9,6-7.5,12.26-7.82,18.77,0,.9,.22,1.42,.63,1.57,.41,.15,.71,.22,.9,.22,.37,0,.75-.19,1.12-.56,5.37-6.71,11.55-15.77,18.54-27.17,3.45,1.53,5.79,3.15,7.03,4.86,1.24,1.72,1.87,3.35,1.87,4.88,0,1.24-.29,2.6-.89,4.1l-7.55,22.36-3.6-2.12c-.23-.15-.44-.29-.62-.44-1.31-.82-2.34-1.68-3.06-2.6-.74-.91-1.11-2.06-1.11-3.45,0-.34,0-.67,.05-1.01,.22-1.87,1.2-4.53,2.95-7.98l-6.81,12.04c-2.3,3.52-4.36,5.33-6.15,5.43-1.79,.1-2.77,.15-2.92,.15-3.26,.01-6.25-1.83-9-5.52-1.35-2.8-2.04-5.85-2.04-9.14-.02-3.66,.79-7.64,2.42-11.91,3.08-8.16,7.84-14.41,14.3-18.74,3.36-1.95,6.65-2.94,9.87-2.95,.71,0,1.42,.05,2.13,.16,3.89,.55,6.73,2.84,8.5,6.87Z"/><path class="cls-2" d="M536.33,148.8c-4.05-.85-6.96-2.31-8.75-4.38-1.78-2.06-2.67-4.32-2.68-6.75,0-1.57,.27-3.31,.82-5.22l9.99-31.86c4.19,1.33,6.98,2.83,8.35,4.49,1.37,1.66,2.06,3.39,2.06,5.18,0,2.17-.61,4.94-1.87,8.31l9.15-15.69c1.27-1.61,2.76-2.42,4.48-2.43,.75,0,1.55,.17,2.42,.5,2.7,1,5.23,2.97,7.6,5.92,.68,1.08,1.02,2.47,1.03,4.15,0,1.35-.2,2.88-.6,4.6-.96,3.93-2.29,8.2-4,12.81-1.41,3.82-2.58,7.34-3.5,10.56-.92,3.22-1.38,5.95-1.37,8.2,0,.41,.02,.8,.06,1.18-4.79-.99-8.02-2.54-9.7-4.63-1.67-2.09-2.51-4.2-2.52-6.33,0-1.98,.49-4.28,1.49-6.91l7.67-22.25-16.24,26.1c-.19,1.01-.65,2.71-1.39,5.11-.52,1.65-1.02,3.32-1.49,5.03-.48,1.7-.82,3.14-.99,4.3Z"/><path class="cls-2" d="M567.04,168.89c.37,.04,.75,.06,1.12,.05,5.31-.02,9.91-2.04,13.78-6.05,4.14-4.32,7.5-9.55,10.08-15.7,2.58-6.14,4.42-11.72,5.53-16.72,1.1-5,1.66-8.36,1.65-10.08v-.45c-2.26,6.97-4.47,12.06-6.63,15.29-2.16,3.22-5.29,6.83-9.4,10.81-1.6,1.54-3.38,2.31-5.32,2.32-.86,0-1.76-.14-2.7-.44-3.03-.96-5.77-2.9-8.21-5.81-.68-1.08-1.02-2.47-1.03-4.15,0-1.35,.21-2.9,.65-4.66,.96-3.93,2.29-8.21,4-12.81,1.41-3.82,2.56-7.32,3.47-10.5,.9-3.18,1.36-5.86,1.35-8.03,0-.48-.02-.95-.06-1.4,4.8,.99,7.96,2.53,9.5,4.6,1.54,2.07,2.32,4.12,2.32,6.14,0,2.06-.5,4.43-1.54,7.13l-7.72,22.31c4.25-4.17,7.65-8.42,10.21-12.75,2.55-4.33,5.24-10.16,8.1-17.51,.59-.9,1.47-1.35,2.63-1.35h.28c5.95,.28,8.94,4.78,8.97,13.49,.03,7.82-2.31,19.02-7.01,33.58-3.86,10.12-7.81,16.02-11.84,17.72-4.04,1.7-6.92,2.55-8.64,2.56-4.57,.02-9.08-2.51-13.55-7.59Z"/></g><g><path class="cls-2" d="M318.42,200.54c14.52,1,23.38,5.45,26.58,13.32,1.27,3.11,1.9,6.27,1.91,9.49,.02,4.92-1.91,10.84-5.78,17.73-3.87,6.9-10.52,11.85-19.96,14.85,7.39,2.59,11.16,8.55,11.29,17.9v.38c.03,9.2-3.63,18.14-10.99,26.83-7.35,8.7-18.7,13.45-34.02,14.25-3.92-.34-6.94-1.98-9.07-4.94-1.31-1.85-1.97-3.99-1.98-6.4,0-1.61,.26-3.32,.81-5.13,3.37,.95,6.64,1.41,9.81,1.4,4.92-.02,10.29-1.57,16.11-4.65,5.82-3.09,10.15-7.73,12.99-13.92,1.15-2.46,1.72-4.83,1.71-7.09-.01-3.32-1.33-6.38-3.95-9.18-.4-.4-1.46-.85-3.17-1.34-1.21-.35-2.59-.52-4.15-.52-.65,0-1.72,.07-3.2,.2-1.48,.13-3.32,1-5.53,2.62l-10.37,31.39c-5.18-1.69-8.94-4.02-11.26-6.97-1.11-1.45-1.67-3.49-1.68-6.1,0-2.81,.61-6.28,1.85-10.41,.65-2.02,1.57-4.78,2.76-8.3,2.29-6.54,4.57-13.48,6.82-20.83,2.26-7.34,3.47-12.65,3.6-15.92,9.5,1.42,14.27,6.15,14.29,14.19,0,2.26-.36,4.8-1.1,7.62,10.48-5.11,18.5-11.05,24.06-17.8,2.8-3.43,4.2-6.5,4.19-9.21-.01-2.57-1.3-4.82-3.87-6.77-3.62-1.45-7.37-2.16-11.24-2.15-6.08,.02-13.47,2.47-22.18,7.35-8.7,4.88-14.31,12.67-16.84,23.39-4.75-6.11-7.13-11.83-7.15-17.16-.02-5.43,2.45-10.44,7.41-15.03,9.52-8.68,22.69-13.04,39.53-13.1h1.73Z"/><path class="cls-2" d="M385.47,253.07c-10.2,2.85-18.58,8.31-25.16,16.37-6.58,8.06-10.08,16.47-10.5,25.21,0,1.2,.28,1.91,.84,2.1,.55,.2,.95,.3,1.21,.3,.5,0,1-.25,1.51-.76,7.2-9.02,15.5-21.18,24.89-36.49,4.63,2.04,7.78,4.22,9.45,6.52,1.66,2.3,2.5,4.49,2.51,6.55,0,1.66-.39,3.49-1.19,5.51l-10.15,30.03-4.83-2.85c-.3-.2-.58-.4-.83-.6-1.77-1.1-3.14-2.26-4.12-3.49-.98-1.23-1.48-2.77-1.49-4.63,0-.45,.02-.9,.07-1.36,.29-2.51,1.61-6.09,3.96-10.72l-9.14,16.16c-3.1,4.74-5.86,7.17-8.27,7.3-2.41,.13-3.72,.2-3.92,.2-4.37,.02-8.4-2.46-12.08-7.42-1.83-3.76-2.74-7.85-2.76-12.28-.02-4.92,1.07-10.25,3.26-15.99,4.13-10.97,10.54-19.36,19.21-25.17,4.52-2.63,8.93-3.95,13.25-3.96,.95,0,1.91,.07,2.87,.21,5.23,.74,9.03,3.82,11.42,9.23Z"/><path class="cls-2" d="M404.88,308.34c-5.43-1.14-9.34-3.09-11.74-5.88-2.4-2.78-3.6-5.8-3.61-9.07,0-2.11,.36-4.45,1.11-7.01l13.42-42.78c5.63,1.79,9.37,3.8,11.22,6.03s2.77,4.55,2.78,6.96c0,2.91-.84,6.63-2.53,11.16l12.29-21.07c1.7-2.17,3.71-3.26,6.02-3.26,1.01,0,2.09,.22,3.24,.67,3.62,1.35,7.02,4,10.21,7.96,.91,1.45,1.37,3.31,1.38,5.57,0,1.81-.27,3.87-.81,6.18-1.29,5.28-3.08,11.02-5.37,17.21-1.89,5.13-3.46,9.87-4.7,14.19-1.24,4.33-1.86,8-1.85,11.01,0,.55,.03,1.08,.08,1.58-6.44-1.33-10.78-3.4-13.03-6.21-2.25-2.81-3.38-5.64-3.39-8.51,0-2.66,.66-5.75,2-9.28l10.3-29.88-21.82,35.05c-.24,1.36-.86,3.64-1.86,6.86-.69,2.21-1.37,4.46-2.01,6.75-.65,2.29-1.09,4.21-1.34,5.77Z"/><path class="cls-2" d="M448.18,335.32c.6,.05,1.2,.07,1.81,.07,7.13-.02,13.21-2.59,18.22-7.68,5.36-5.45,9.63-12.06,12.82-19.83,3.19-7.77,5.39-14.67,6.6-20.68,1.21-6.01,1.81-10.07,1.81-12.18,0-.4-.03-.76-.08-1.05l-3.52,7.09c-3.49,7.75-7.19,14.25-11.09,19.49-3.86,4.64-7.02,7.01-9.47,7.12-2.46,.11-3.82,.17-4.07,.17-4.47,.02-8.52-2.46-12.16-7.42-1.72-3.56-2.59-7.48-2.6-11.75-.02-5.18,1.22-10.84,3.71-16.97,4.53-11.17,11.19-19.66,19.96-25.47,3.56-2.07,7.12-3.11,10.69-3.13,1.86,0,3.75,.29,5.66,.88,5.38,1.64,9.16,5.9,11.35,12.77-2.26-.69-4.48-1.04-6.64-1.03-6.18,.02-12.05,2.96-17.6,8.81-7.51,7.92-11.85,17.73-13.02,29.44,.05,1.66,.32,2.79,.8,3.39,.48,.6,.97,.9,1.47,.9h.23c.65-.05,1.18-.33,1.58-.83,4.95-5.7,8.95-12.67,11.99-20.92,1.94-4.73,3.87-8.71,5.8-11.93,1.92-3.22,4.17-4.84,6.73-4.85h.15c6.08,.13,9.76,3.01,11.03,8.63,1.28,5.62,1.92,9.74,1.93,12.36,.03,9.09-2.74,21.62-8.31,37.56-5.18,13.59-10.49,21.52-15.94,23.8-5.45,2.27-9.32,3.42-11.64,3.43-6.13,.02-12.2-3.37-18.2-10.18Z"/><path class="cls-2" d="M504.91,283.72c1.19-3.82,3.64-11.87,7.34-24.14,3.7-12.27,7.24-24.45,10.61-36.52,3.38-12.07,5.16-19.74,5.35-23.01,9.6,1.42,14.41,6.31,14.44,14.65,.01,2.76-.51,5.91-1.55,9.43l-25.04,83.83c-5.23-1.74-8.72-3.75-10.46-6.03-1.74-2.28-2.61-4.75-2.63-7.42,0-2.91,.63-6.51,1.92-10.79Z"/><path class="cls-2" d="M578.16,252.41c-10.2,2.85-18.58,8.31-25.16,16.37-6.58,8.06-10.08,16.47-10.5,25.21,0,1.2,.28,1.91,.84,2.1,.55,.2,.95,.3,1.21,.3,.5,0,1-.25,1.51-.76,7.2-9.02,15.5-21.18,24.89-36.49,4.63,2.04,7.78,4.22,9.45,6.52,1.66,2.3,2.5,4.48,2.51,6.54,0,1.66-.39,3.5-1.19,5.51l-10.15,30.03-4.83-2.85c-.3-.2-.58-.4-.83-.6-1.77-1.1-3.14-2.26-4.12-3.49-.98-1.23-1.48-2.77-1.49-4.63,0-.45,.02-.9,.07-1.36,.29-2.51,1.61-6.09,3.96-10.72l-9.14,16.16c-3.1,4.74-5.86,7.17-8.27,7.3-2.41,.13-3.72,.2-3.92,.2-4.37,.02-8.4-2.46-12.08-7.42-1.83-3.76-2.74-7.85-2.76-12.28-.02-4.92,1.07-10.25,3.26-15.99,4.13-10.97,10.54-19.36,19.21-25.17,4.52-2.63,8.93-3.95,13.25-3.96,.95,0,1.91,.07,2.87,.21,5.23,.74,9.03,3.82,11.42,9.23Z"/><path class="cls-2" d="M641.97,199.65c9.6,1.42,14.42,6.3,14.45,14.65,.01,2.76-.51,5.91-1.55,9.43l-25.04,83.83c-4.52-1.54-8.08-3.39-10.65-5.54-2.06-1.7-3.1-4.23-3.11-7.6,0-.9,.07-1.89,.21-2.94l-4.79,8.61c-3.15,4.74-7.04,7.24-11.66,7.5h-.6c-4.37,.02-8.4-2.45-12.08-7.42-2.13-4.21-3.2-8.91-3.22-14.08-.01-4.37,1.18-10.57,3.6-18.59,2.41-8.03,7.9-14.94,16.47-20.75,4.21-2.67,7.95-4.02,11.22-4.03,5.08-.02,9.01,3.16,11.8,9.53-9.89,2.85-17.04,8.3-21.46,16.35-4.42,8.06-6.69,16.46-6.81,25.2,0,1.2,.43,1.96,1.29,2.26,.25,.1,.5,.15,.76,.15,.5,0,1-.25,1.51-.76,6.65-8.31,14.25-19.34,22.8-33.1,2.38-8,4.88-16.47,7.49-25.42,2.61-8.95,4.82-16.9,6.63-23.84,1.81-6.94,2.74-11.42,2.78-13.42Z"/><path class="cls-2" d="M645.11,300.04c-1.83-3.76-2.74-7.88-2.76-12.35-.02-4.92,1.07-10.25,3.26-15.99,4.13-10.92,10.54-19.28,19.21-25.1,4.21-2.53,8.28-3.8,12.2-3.81,4.07-.02,8,1.28,11.77,3.88,2.62,1.85,3.93,4.66,3.95,8.43,0,1.21-.12,2.51-.36,3.92-1.04,5.79-5.57,12.25-13.58,19.42-7.36,7.17-14.78,12.04-22.26,14.62l.15,.61c.21,1.51,1.09,2.47,2.65,2.89,1.56,.42,2.74,.63,3.54,.63,2.26,0,5.03-.75,8.28-2.22,4.52-1.98,9.93-6.19,16.24-12.64h.08c.2,0,.33,.4,.38,1.2v.53c0,.9-.09,2.03-.29,3.39-.25,1.61-.65,3.26-1.23,4.94-.57,1.68-1.38,3.16-2.44,4.42-2.15,3.22-5.53,5.8-10.14,7.72-4.62,1.93-9.09,2.9-13.41,2.91-.96,0-1.91-.04-2.86-.14-5.33-.44-9.46-2.86-12.39-7.27Zm36.7-43.69c-.45-.1-.93-.15-1.43-.15-2.21,0-4.67,1.18-7.38,3.49-3.3,2.88-6.38,6.52-9.23,10.92-2.85,4.41-4.94,8.57-6.29,12.5,4.06-2.08,8.28-5.08,12.63-9.02,4.36-3.93,7.54-7.34,9.54-10.21,2-2.87,3-4.88,3-6.04,0-.7-.28-1.21-.84-1.5Z"/><path class="cls-2" d="M688.72,290.32c0-3.32,1.07-5.64,3.25-6.99,2.18-1.34,4.23-2.01,6.14-2.02,1.01,0,2.06,.14,3.17,.44-.1,1.11-.15,2.16-.14,3.17,.01,3.22,.55,5.95,1.61,8.21,1.16,2.46,3.03,3.68,5.59,3.68,.6,0,1.23-.08,1.88-.23,1.4-.66,2.44-1.75,3.12-3.26,.67-1.51,1-3.12,1-4.83-.26-1.91-3.47-6.75-9.62-14.52-1.11-1.5-2.29-3.08-3.56-4.73-1.97-3.01-2.96-6.22-2.97-9.64,0-1.31,.15-2.64,.44-4,1.04-4.88,3.41-8.31,7.13-10.28,3.71-1.97,7.35-2.96,10.92-2.97,3.42-.01,7.36,.6,11.84,1.84,5.74,2.04,9.19,6.23,10.37,12.55,.01,3.27-1.09,5.67-3.29,7.21-2.21,1.54-4.47,2.31-6.78,2.32-.55,0-1.1-.04-1.66-.15,.04-.5,.07-1.03,.07-1.58-.01-4.02-1.11-7.46-3.28-10.31-1.56-2.16-3.35-3.24-5.36-3.23-1.06,0-2.19,.31-3.39,.92-1.56,1.56-2.33,3.15-2.32,4.76,0,.5,.1,1.03,.3,1.58,.76,2.16,1.75,3.91,2.96,5.26,.4,.51,.83,1.01,1.28,1.51,1.67,2.06,3.41,4.11,5.22,6.17,2.32,2.55,4.32,5.21,5.98,7.97,1.77,3.61,2.66,7.1,2.67,10.47,0,1.71-.21,3.39-.66,5.05-1.29,4.98-4.57,8.56-9.84,10.73-1.91,.91-4.19,1.45-6.85,1.61-2.66,.16-4.25,.24-4.75,.24-4.37,.02-8.57-1.02-12.6-3.12-4.53-2.34-7.16-6.96-7.89-13.84Z"/><path class="cls-2" d="M792.23,250.76c.91,1.45,1.37,3.29,1.38,5.5,0,1.86-.46,4.69-1.41,8.48-.94,3.8-2.56,8.82-4.84,15.05-1.89,5.09-3.51,9.99-4.85,14.72-1.09,3.87-1.64,7.26-1.62,10.18,0,.65,.03,1.28,.08,1.88-6.49-1.39-11.22-3.93-14.2-7.64-1.52-1.91-2.27-4.26-2.28-7.08,0-2.66,.66-5.76,2-9.28l9.71-26.64-22.51,29.32-6.56,21.88c-5.24-1.74-9.04-4.14-11.4-7.2-1.11-1.5-1.67-3.59-1.68-6.25,0-2.91,.63-6.5,1.92-10.79,1.19-3.82,3.64-11.87,7.34-24.14,3.7-12.27,7.24-24.45,10.61-36.52,3.37-12.07,5.16-19.74,5.35-23.01,9.6,1.42,14.42,6.31,14.45,14.65,.01,2.76-.51,5.91-1.55,9.43l-11.18,37.58,11.71-15.42c1.75-2.17,3.78-3.26,6.09-3.26,1.01,0,2.69,.44,5.06,1.34,2.36,.9,5.16,3.3,8.39,7.21Z"/></g><g><path class="cls-2" d="M399.25,159.04c1.81-.29,3.44-.45,4.89-.45,2.65,0,4.95,.61,6.89,1.84,1.94,1.24,3.08,3.15,3.41,5.73,.1,.65,.15,1.31,.15,1.99,0,1.87-.38,3.72-1.15,5.53-3.01-2.06-6.83-3.14-11.45-3.26h-1.7c-4.3,.02-9.39,.46-15.27,1.32,.75,1.16,1.12,2.63,1.13,4.41,0,1.78-.36,3.86-1.09,6.26l-1.2,4.03,11.59-.04c.13,0,.23,.08,.29,.24,.04,.09,.05,.22,.05,.38v.24c-.57,3.79-2.34,5.68-5.31,5.69h-.58l-7.76-.75-10.69,35.96c-3.46-1.12-5.95-2.66-7.48-4.63-.75-.97-1.12-2.32-1.13-4.07,0-1.84,.41-4.14,1.24-6.89,.51-1.56,1.37-4.31,2.56-8.28,1.2-3.96,2.52-8.37,3.96-13.22l-3.98-.38c-.39-.13-.62-.53-.68-1.21v-.19c0-.58,.13-1.18,.38-1.79,.26-.62,.69-.96,1.3-1.02l4.31-.02c1.47-5.08,2.65-9.51,3.54-13.3-1.78,.39-3.39,.59-4.85,.6-2.84,0-5.14-.68-6.89-2.06-1.46-1.13-2.19-2.63-2.2-4.5,0-1.62,.52-3.49,1.58-5.63,.72,2.46,2.82,3.68,6.31,3.66,.58,0,2.19-.15,4.82-.43,2.63-.28,7.23-1.31,13.78-3.08,3.65-.95,7.38-1.85,11.19-2.71Z"/><path class="cls-2" d="M398.03,228.08c-3.49-.73-6.01-1.99-7.55-3.78-1.54-1.79-2.32-3.73-2.32-5.83,0-1.36,.23-2.86,.71-4.51l8.63-27.52c1.59,.58,3.07,1.01,4.46,1.29,2.49,.41,4.1,1.05,4.83,1.9,.73,.85,1.1,1.77,1.1,2.74,0,1.39-.46,3.3-1.39,5.72l6.27-9.67c1.09-1.39,2.38-2.09,3.87-2.1,.65,0,1.34,.14,2.09,.43,2.33,.86,4.52,2.57,6.56,5.11,1.04,1.39,1.56,2.65,1.56,3.78v.29c-.09,1.16-.41,2.39-.95,3.69-.45,1.1-.81,2.23-1.08,3.4-.27,1.16-.4,2.31-.4,3.44,0,.71,.06,1.47,.15,2.28-4.17-.89-6.98-2.24-8.42-4.04s-2.17-3.61-2.18-5.42c0-1.71,.42-3.7,1.29-5.97l.15-.24-12.39,18.66c-.06,.42-.27,1.17-.62,2.23s-.77,2.3-1.25,3.69c-.67,2.01-1.31,3.99-1.92,5.95-.61,1.96-1.01,3.45-1.2,4.49Z"/><path class="cls-2" d="M429.72,223.12c-1.85-2.9-2.79-6.28-2.8-10.12,0-1,.06-2.04,.18-3.1,.57-5.14,2.23-9.9,4.99-14.27,.56,3.56,2.87,6.57,6.92,9.05-.89,3.43-1.33,6.57-1.33,9.41,0,1.29,.11,2.52,.3,3.68,.65,2.55,1.73,3.83,3.21,3.82h.15c.2,.03,.39,.04,.59,.04,.87,0,1.77-.47,2.71-1.41,2.06-2.4,3.62-5.67,4.67-9.81,1.05-4.14,1.57-7.64,1.56-10.48,0-1.23-.09-2.41-.25-3.54-.65-2.59-1.76-3.87-3.31-3.87h-.1c-.16-.03-.34-.04-.53-.04-.87,0-1.79,.49-2.76,1.46-.61,.55-.92,1.07-.92,1.56,0,.06,.02,.15,.05,.24,.17,.55,.56,1.06,1.2,1.52,.63,.46,1.32,.89,2.06,1.28,.74,.42,1.29,.79,1.65,1.11,.74,.67,1.12,1.43,1.12,2.27,0,.19-.02,.39-.05,.58-.22,1.13-.69,2.03-1.42,2.69-.72,.67-1.41,1-2.06,1-.26,0-.53-.05-.82-.14-2.1-.9-3.87-1.91-5.29-3.04-3.54-2.86-5.3-5.56-5.31-8.08,0-1.13,.35-2.23,1.05-3.3,1.09-1.1,2.25-2.06,3.48-2.87,2.65-1.69,5.36-2.54,8.14-2.55,.29,0,.58,.01,.87,.04,.48-.03,.95-.05,1.41-.05,3.91-.02,7.18,1.58,9.81,4.76,1.85,3.1,2.79,6.55,2.8,10.37,0,2.49-.37,5.11-1.14,7.86-1.91,7.05-5.47,12.45-10.66,16.18-2.71,1.66-5.45,2.49-8.23,2.5h-.78c-.45,.04-.89,.06-1.31,.06-3.98,.02-7.26-1.59-9.86-4.81Z"/><path class="cls-2" d="M470.32,186.82c5.3,.14,7.95,1.86,7.97,5.16,0,1.2-.33,2.59-1,4.17,.89-3.14,1.94-5.65,3.12-7.53,1-1.59,2.21-2.38,3.63-2.39,.26,0,.53,.03,.82,.09,6.05,1.3,9.08,4.3,9.1,8.98,0,.45-.03,.9-.09,1.36,2.01-7.02,4.57-10.54,7.67-10.55h.15c4.01,.89,7.12,2.55,9.33,4.96,1.49,1.64,2.24,3.69,2.25,6.15,0,1.16-.15,2.39-.47,3.68l-8.39,26.74c-6.12-2.24-9.18-5.63-9.2-10.15,0-.94,.13-1.92,.38-2.96l6.81-20.43c.03-.13,.05-.26,.05-.39,0-.55-.24-1.02-.71-1.4-.47-.39-1.09-.66-1.87-.82l-12.48,36.26c-3.27-1.67-5.73-3.54-7.39-5.6-1.14-1.39-1.7-2.97-1.71-4.74,0-.84,.13-1.73,.38-2.67l6.38-20.05c.03-.16,.04-.31,.04-.44,0-.52-.29-.95-.85-1.3-.57-.36-1.24-.59-2.01-.72l-11.9,35.53c-3.79-1.38-6.43-3.28-7.92-5.69-.72-1.13-1.07-2.52-1.08-4.17,0-1.87,.44-4.09,1.34-6.65l7.67-24.46Z"/></g><path class="cls-1" d="M268.89,206.88c5.37-7.81,14.29-12.51,18.71-17.12,4.34-4.53,8.15-13.68,.72-19.19-8.13-6.04-18.17,2.16-21.82,10.02-3.51,7.55-3.88,17.19-1.26,25.27,.95,2.96,2.08,3.29,3.65,1.02Z"/><path class="cls-4" d="M590.5,96.44c-1.93,3.81-1.74,4.06,3.68,3.67,16.04-1.11,30.11,10.97,46.16,10.02,10.53-.63,20.25-14.22,15.66-24.29-5.66-12.41-21.63-14.79-33.79-12.47-13.32,2.54-25.53,10.94-31.72,23.07Z"/><path class="cls-1" d="M278.84,319.36c-3.57-1.63-6.73-3.53-9.94-6.83-3.86-3.97-6.25-8.51-11.51-10.81-7.53-3.27-13.55,2.19-13.45,9.58,.09,7.11,7.15,13.48,13.4,15.67,7.5,2.62,14.91,1.87,21.65-1.35,5.43-2.58,2.93-4.87-.15-6.26Z"/><path class="cls-4" d="M28.62,73.86c1.27,6.79,3.42,9.62,9.76,3.17,5.65-5.73,11.4-10.16,19.8-13.66,7.07-2.92,12.98-4.35,17.63-10.85,6.18-8.62,3.76-20.98-4.75-26.92-11.63-8.15-27.37,.54-34.75,10.18-8.08,10.55-10.15,25.04-7.7,38.08Z"/><path class="cls-2" d="M250.05,22.68c-7.22,3.16-12.84,8.06-16.85,14.69-4.02,6.63-5.72,13.19-5.12,19.69,.13,.88,.4,1.37,.84,1.47,.43,.08,.74,.11,.92,.09,.37-.05,.71-.29,1.03-.71,4.37-7.4,9.23-17.23,14.56-29.5,3.63,1.03,6.17,2.3,7.64,3.82,1.47,1.53,2.31,3.05,2.53,4.57,.18,1.22,.08,2.62-.3,4.18l-4.36,23.2-3.86-1.6c-.24-.12-.47-.23-.68-.36-1.41-.63-2.55-1.34-3.39-2.15-.86-.8-1.38-1.89-1.58-3.26-.05-.34-.08-.67-.09-1.01-.05-1.88,.55-4.66,1.79-8.31l-5.05,12.87c-1.79,3.81-3.57,5.89-5.34,6.24-1.76,.36-2.71,.53-2.86,.55-3.22,.47-6.46-.93-9.69-4.21-1.73-2.59-2.84-5.51-3.3-8.77-.53-3.63-.28-7.67,.74-12.13,1.91-8.51,5.75-15.36,11.55-20.55,3.05-2.41,6.17-3.84,9.36-4.3,.7-.11,1.41-.15,2.13-.14,3.93,0,7.06,1.87,9.38,5.62Z"/></g></svg>